# xmcd
#
# Track frame offsets:
#  150
#  15554
#  32854
#  53224
#  71756
#  90325
#  108626
#  122898
#  137138
#  158001
#  175236
#  190380
#  203044
#  219466
#
# Disc length: 3114 seconds
#
# Revision: 0
# Processed by: cddbd v1.5.1PL2 Copyright (c) Steve Scherf et al.
# Submitted via: Collectorz.com_Music_Collector 6.11
#
DISCID=c70c280e
DTITLE=Buncombe Turnpike - Blackwater Bottom
DYEAR=2004
DGENRE=Bluegrass
TTITLE0=Black Water Bottom
TTITLE1=Black Sedan
TTITLE2=Big Roy
TTITLE3=Gettysburg
TTITLE4=Stormy Joe
TTITLE5=Lawrence Cole
TTITLE6=The Oath
TTITLE7=Lonesome Feeling
TTITLE8=Dark as a Dungeon
TTITLE9=My First Love
TTITLE10=God's Lamb
TTITLE11=My Dying Day
TTITLE12=Sky Harbor Hill
TTITLE13=Pike County Breakdown
EXTD=
EXTT0=
EXTT1=
EXTT2=
EXTT3=
EXTT4=
EXTT5=
EXTT6=
EXTT7=
EXTT8=
EXTT9=
EXTT10=
EXTT11=
EXTT12=
EXTT13=
PLAYORDER=
